<?xml version="1.0" standalone="no"?>
<!DOCTYPE svg PUBLIC "-//W3C//DTD SVG 20010904//EN"
 "http://www.w3.org/TR/2001/REC-SVG-20010904/DTD/svg10.dtd">
<svg version="1.0" xmlns="http://www.w3.org/2000/svg"
 width="916.000000pt" height="131.000000pt" viewBox="0 0 916.000000 131.000000"
 preserveAspectRatio="xMidYMid meet">

<g transform="translate(0.000000,131.000000) scale(0.100000,-0.100000)"
fill="#000000" stroke="none">
<path d="M0 1181 c0 -126 1 -129 21 -124 15 4 17 8 8 14 -8 5 2 10 27 15 21 3
44 10 49 15 10 8 52 14 207 31 9 1 14 6 12 10 -8 13 137 9 191 -6 58 -15 63
-12 -108 -56 -65 -16 -130 -36 -146 -45 -35 -17 -73 -61 -90 -104 -8 -17 -17
-28 -22 -25 -5 3 -9 0 -9 -6 0 -6 -6 -10 -12 -9 -45 6 -58 -1 -58 -31 0 -26
-3 -30 -29 -30 -16 0 -32 6 -34 13 -3 6 -6 -180 -6 -416 l-1 -427 1208 2 c664
2 1214 5 1222 8 8 3 17 7 20 10 31 31 169 79 226 80 33 0 43 4 47 20 3 12 14
20 25 20 11 0 29 3 39 6 11 4 14 3 7 -3 -6 -4 -8 -17 -4 -27 4 -12 9 -15 13
-9 4 6 16 9 27 6 15 -4 20 0 20 16 0 11 1 21 3 21 1 0 26 -9 55 -20 29 -11 65
-20 81 -20 16 0 37 -7 45 -16 18 -17 22 -39 6 -29 -6 3 -10 1 -10 -4 0 -6 -6
-11 -14 -11 -13 0 -26 -20 -26 -41 0 -5 176 -9 433 -9 l432 1 -25 22 c-14 12
-31 35 -39 50 -15 29 -37 38 -27 10 6 -16 -8 -33 -29 -33 -5 0 -4 4 4 9 14 9
7 31 -10 31 -6 0 -7 -5 -4 -10 8 -14 -18 -13 -32 1 -8 8 -6 19 6 40 19 34 9
57 -35 78 -16 8 -32 19 -35 24 -4 5 -13 8 -21 5 -18 -7 -52 17 -43 31 3 6 0
11 -9 11 -16 0 -76 56 -76 70 0 5 -10 14 -22 20 -21 10 -21 10 -5 -3 16 -13
24 -37 11 -37 -11 0 -34 29 -34 44 0 9 -8 16 -20 16 -11 0 -20 7 -20 15 0 8
-4 15 -9 15 -4 0 -28 17 -52 39 -24 21 -59 42 -77 45 -40 9 -41 29 -3 67 30
29 64 38 76 18 4 -6 13 -8 19 -6 7 3 19 1 27 -5 11 -8 10 -9 -4 -4 -17 5 -17
5 0 -19 24 -32 34 -31 55 4 12 22 13 31 5 35 -7 3 -6 5 3 5 8 1 28 19 43 41
16 23 36 40 48 40 20 0 26 -24 9 -35 -6 -3 -10 -10 -10 -15 0 -5 23 7 51 26
83 56 96 42 41 -48 -40 -65 -58 -76 -55 -32 1 13 -4 24 -11 24 -14 0 -72 -60
-105 -108 -12 -17 -29 -32 -37 -32 -8 0 -14 -4 -14 -9 0 -20 19 -20 44 0 21
17 29 18 48 8 13 -7 29 -19 35 -28 11 -13 14 -14 22 -2 7 11 10 10 18 -3 9
-16 43 -13 43 4 0 11 -45 21 -63 15 -7 -3 -20 2 -28 11 -13 16 -11 17 14 12
15 -3 27 -1 27 4 0 5 10 3 23 -4 12 -7 26 -11 30 -10 5 1 6 -2 2 -8 -6 -10 35
-15 100 -12 17 0 24 -2 18 -4 -7 -3 -13 -11 -13 -18 0 -17 -70 -38 -85 -26 -6
5 -17 5 -25 -1 -12 -7 -6 -17 30 -48 25 -22 48 -37 52 -35 3 2 15 -8 26 -22
11 -17 24 -24 31 -20 9 6 7 12 -6 23 -10 8 -2 6 17 -5 35 -20 36 -20 60 -2 27
21 50 26 50 10 0 -5 -7 -10 -15 -10 -8 0 -28 -13 -45 -30 -17 -16 -26 -30 -21
-30 5 0 13 5 16 10 9 15 25 12 25 -5 0 -8 -7 -15 -15 -15 -8 0 -15 -4 -15 -10
0 -5 7 -6 17 -3 11 4 14 3 9 -5 -4 -7 -2 -12 6 -12 7 0 30 -21 52 -46 24 -27
44 -43 53 -40 9 4 18 -5 25 -24 5 -17 16 -30 24 -30 8 0 14 -5 14 -11 0 -5 4
-8 9 -4 5 3 12 1 16 -5 10 -16 121 -12 135 5 16 19 46 19 54 0 4 -12 24 -15
98 -14 51 0 87 3 80 6 -6 2 -10 9 -7 13 3 5 -4 15 -16 23 -11 8 -16 17 -11 20
4 4 30 -10 57 -29 28 -19 61 -34 77 -34 27 0 37 13 19 24 -14 9 -20 56 -7 56
6 0 20 -14 31 -30 26 -39 51 -40 26 -1 -10 16 -4 41 10 41 5 0 8 -3 7 -7 0 -5
6 -25 16 -45 14 -34 20 -38 52 -38 37 0 37 6 6 42 -18 21 -7 41 19 33 11 -4
19 -2 19 5 0 6 5 8 10 5 17 -10 11 -25 -10 -25 -11 0 -20 -4 -20 -10 0 -11 35
-31 43 -24 3 3 19 -2 36 -10 36 -19 166 -23 155 -5 -4 8 0 8 15 0 15 -8 161
-11 503 -11 430 1 485 3 501 18 17 15 17 15 11 -1 -3 -10 -1 -17 5 -17 6 0 11
4 11 9 0 6 18 9 40 8 22 -1 40 -5 40 -9 0 -4 190 -8 423 -8 l422 1 -24 20
c-18 14 -32 18 -53 14 -28 -7 -58 7 -58 26 0 13 37 11 60 -4 17 -10 22 -9 31
3 8 12 12 12 16 2 3 -7 15 -24 28 -38 22 -24 25 -24 191 -24 150 1 171 3 192
19 12 11 22 24 22 30 0 6 8 11 18 11 42 0 157 74 145 93 -4 7 1 8 12 3 11 -4
21 -2 26 5 4 7 12 8 20 3 20 -12 40 -14 33 -3 -8 14 24 23 39 11 16 -14 45 7
41 30 -2 19 20 24 51 11 14 -5 10 -10 -20 -28 -23 -15 -33 -25 -25 -30 6 -4
17 -2 23 4 14 14 50 15 42 1 -3 -5 1 -10 9 -10 9 0 16 -4 16 -10 0 -5 -37 -7
-92 -5 -51 3 -100 0 -108 -5 -11 -7 0 -10 38 -10 43 0 52 -3 52 -17 0 -13 2
-15 8 -5 11 17 112 14 112 -3 0 -13 42 -45 60 -45 5 0 18 -8 29 -19 23 -23
109 -38 125 -21 6 6 7 11 1 10 -20 -4 -35 0 -35 10 0 6 11 10 24 10 16 0 27 7
31 20 8 26 25 25 53 -4 26 -28 28 -36 7 -36 -8 0 -15 -4 -15 -9 0 -7 25 -8 93
-2 9 0 16 7 15 14 -2 7 10 13 30 15 18 2 32 0 31 -5 -3 -20 2 -25 16 -13 15
12 55 5 55 -11 0 -10 63 -12 97 -3 13 4 21 10 18 14 -3 5 -14 6 -25 3 -23 -6
-78 16 -85 35 -3 9 5 12 30 10 19 -1 35 -7 35 -14 0 -6 15 -11 32 -12 20 0 39
-9 50 -21 19 -24 48 -28 48 -6 0 8 5 15 10 15 6 0 10 -7 10 -15 0 -13 46 -15
355 -15 l355 0 -2 498 c-1 273 -5 441 -8 372 -3 -69 -7 -114 -8 -101 -1 16 -6
21 -18 17 -9 -3 -12 -2 -9 5 4 6 -1 17 -11 24 -12 9 -14 14 -6 15 7 0 10 5 7
10 -19 30 -23 251 -6 283 11 21 11 28 -4 51 -10 14 -24 26 -32 26 -15 0 -62
48 -63 65 0 6 -14 18 -31 28 -29 16 -116 17 -1435 17 l-1404 0 -6 -25 c-6 -24
-44 -37 -44 -15 0 6 7 10 15 10 27 0 5 25 -25 27 -22 2 -28 -1 -23 -13 3 -9 0
-14 -7 -12 -7 2 -15 -3 -18 -11 -3 -9 0 -11 7 -6 16 9 51 -23 51 -47 0 -20 16
-25 23 -5 2 6 8 8 13 4 5 -4 2 -12 -6 -17 -12 -8 -12 -16 4 -62 24 -66 30 -74
64 -82 29 -7 88 -71 74 -80 -5 -3 -26 4 -48 14 -46 24 -56 25 -95 4 -17 -8
-33 -13 -36 -11 -9 9 -9 102 0 114 5 7 6 27 3 45 -3 18 -7 39 -8 46 -1 6 -7
12 -14 12 -8 0 -11 9 -8 25 3 20 0 25 -15 25 -26 0 -45 32 -28 49 9 9 -45 11
-231 10 -238 -1 -243 -1 -226 -20 9 -10 13 -19 7 -19 -5 0 -18 9 -28 20 -18
20 -31 20 -1542 20 -848 0 -1523 -4 -1523 -9 0 -11 50 -61 62 -61 6 0 23 -14
39 -31 16 -17 29 -26 29 -19 0 6 13 2 31 -10 16 -12 28 -28 25 -35 -7 -18 5
-27 20 -14 9 8 18 5 33 -10 12 -12 25 -21 30 -21 5 0 11 -8 14 -19 2 -10 28
-34 56 -52 28 -19 51 -37 51 -41 0 -3 42 -40 93 -81 50 -41 107 -88 126 -106
33 -31 47 -39 36 -21 -13 20 25 9 52 -16 16 -14 35 -23 45 -21 13 4 18 -1 18
-14 0 -29 14 -23 28 13 9 24 9 35 0 43 -8 7 -9 5 -5 -7 11 -31 -13 -30 -46 2
-17 17 -33 26 -35 20 -2 -5 -11 -10 -20 -10 -28 1 17 30 45 30 32 0 29 10 -21
66 -25 27 -43 50 -41 53 2 2 11 -4 20 -13 9 -9 21 -16 26 -16 5 0 14 -10 20
-22 15 -31 69 -74 77 -61 4 6 45 10 97 9 110 -1 145 -18 145 -69 0 -41 -28
-95 -61 -120 -16 -11 -56 -22 -105 -28 -92 -12 -112 -26 -150 -106 -16 -35
-34 -57 -50 -63 -54 -21 -56 -9 -14 71 l29 57 -30 12 c-22 10 -28 17 -24 31 4
13 1 19 -9 19 -10 0 -13 6 -10 15 4 11 -3 19 -25 26 -17 6 -31 17 -31 24 0 7
-14 18 -30 25 -17 7 -36 20 -43 29 -7 9 -23 24 -37 33 -14 8 -51 41 -82 72
-32 31 -66 56 -78 56 -11 0 -20 7 -20 15 0 8 -5 15 -10 15 -6 0 -25 13 -43 30
-18 16 -51 46 -74 66 -24 20 -43 42 -43 49 0 13 -26 29 -58 34 -4 0 -13 10
-20 21 -12 19 -10 20 23 16 26 -3 35 -1 35 10 0 8 -9 14 -21 14 -29 0 -109 68
-109 92 0 14 5 18 15 14 8 -3 15 -1 15 4 0 6 -168 10 -455 10 -430 0 -455 -1
-455 -18 0 -11 -8 -18 -20 -19 -25 -2 -26 13 -2 26 11 7 -234 10 -750 11
l-768 0 0 -129z m1567 52 c0 -17 -8 -16 -35 3 -12 8 -20 19 -17 24 7 12 52
-11 52 -27z m4693 11 c0 -8 -4 -12 -10 -9 -5 3 -10 13 -10 21 0 8 5 12 10 9 6
-3 10 -13 10 -21z m-65 6 c3 -5 1 -10 -4 -10 -6 0 -11 5 -11 10 0 6 2 10 4 10
3 0 8 -4 11 -10z m-4653 -64 c145 -36 349 -86 453 -111 212 -52 270 -76 303
-125 22 -33 24 -49 24 -190 0 -27 0 -54 -1 -60 -1 -5 -26 -10 -56 -10 l-55 0
0 35 c0 33 2 35 35 35 l35 0 0 65 c0 77 -18 118 -61 140 -28 15 -208 61 -731
189 l-227 56 -323 -79 c-178 -43 -384 -93 -458 -111 -214 -52 -240 -71 -240
-180 l0 -65 33 0 c31 0 32 -2 35 -42 l3 -43 -60 0 -61 0 0 83 c1 153 22 200
106 238 22 10 191 55 375 100 184 45 384 94 444 109 61 16 122 29 137 29 15 1
146 -28 290 -63z m4014 49 c20 -19 4 -20 -22 0 -12 9 -14 14 -6 15 7 0 20 -7
28 -15z m746 -37 c-7 -7 -12 -8 -12 -2 0 14 12 26 19 19 2 -3 -1 -11 -7 -17z
m384 7 c16 -13 17 -16 4 -26 -11 -8 -12 -12 -2 -16 6 -2 12 -15 12 -29 0 -17
-7 -25 -24 -30 -38 -9 -70 -1 -74 19 -3 16 1 18 30 13 l33 -6 -32 15 c-37 17
-44 48 -15 64 24 15 45 13 68 -4z m72 -48 c3 -52 1 -57 -18 -57 -18 0 -20 6
-20 53 0 30 3 57 7 61 17 16 28 -5 31 -57z m79 36 l17 -26 6 24 c3 13 12 24
20 24 11 0 16 -15 18 -57 3 -52 1 -58 -17 -58 -11 0 -27 10 -35 22 l-16 22 0
-22 c0 -15 -6 -22 -19 -22 -16 0 -20 9 -23 50 -1 28 -1 55 0 60 7 19 31 10 49
-17z m164 17 c10 -6 19 -18 19 -26 0 -12 -7 -14 -30 -9 -27 6 -30 4 -30 -19 0
-28 9 -33 27 -15 7 7 19 9 28 5 13 -4 14 -10 5 -26 -16 -29 -75 -28 -94 3 -19
29 -10 72 17 85 29 14 35 14 58 2z m134 -10 c0 -8 -11 -17 -25 -21 -25 -7 -25
-7 3 -8 34 -1 32 -22 -4 -32 -24 -7 -24 -7 4 -8 17 -1 27 -7 27 -16 0 -11 -12
-15 -50 -15 l-50 0 0 53 c0 30 3 57 7 61 14 13 88 2 88 -14z m156 10 c23 -13
24 -37 2 -62 -15 -17 -15 -18 0 -18 10 0 17 -7 17 -15 0 -11 -12 -15 -50 -15
-27 0 -50 4 -50 9 0 5 14 21 30 34 36 31 37 37 5 37 -27 0 -32 9 -13 28 15 15
33 15 59 2z m111 -7 c20 -18 24 -73 6 -91 -7 -7 -24 -12 -40 -12 -47 0 -65 63
-28 100 24 24 38 25 62 3z m106 1 c15 -10 22 -25 22 -48 0 -39 -15 -56 -52
-56 -47 0 -65 63 -28 100 24 24 29 24 58 4z m110 -47 c3 -52 1 -57 -18 -57
-16 0 -20 6 -20 35 0 26 -3 33 -15 29 -24 -10 -18 22 8 39 34 24 42 16 45 -46z
m-6908 13 c0 -5 -2 -10 -4 -10 -3 0 -8 5 -11 10 -3 6 -1 10 4 10 6 0 11 -4 11
-10z m5824 1 c9 -13 -4 -41 -18 -41 -18 0 -35 21 -29 36 6 16 39 19 47 5z
m1194 -12 c3 -17 -23 -33 -39 -23 -5 3 -9 14 -9 25 0 15 6 20 22 17 13 -2 24
-10 26 -19z m1136 -29 c7 -24 6 -24 -8 -6 -9 11 -16 27 -16 35 0 21 16 2 24
-29z m-8208 21 c-8 -12 -46 -21 -46 -11 0 5 8 11 18 13 29 8 33 7 28 -2z
m8171 -67 c-3 -3 -12 -4 -19 -1 -8 3 -5 6 6 6 11 1 17 -2 13 -5z m-2460 -26
c-3 -8 -6 -5 -6 6 -1 11 2 17 5 13 3 -3 4 -12 1 -19z m2524 -14 c13 -16 12
-16 -7 -6 -11 6 -27 19 -35 28 -13 16 -12 16 7 6 11 -6 27 -19 35 -28z m-8023
-52 c3 -9 -3 -11 -22 -6 -16 4 -26 2 -26 -5 0 -6 5 -11 10 -11 6 0 19 -9 31
-21 20 -20 20 -22 3 -40 -21 -23 -47 -24 -65 -2 -13 15 -11 16 14 11 36 -7 45
9 13 23 -30 14 -40 37 -25 56 15 17 61 13 67 -5z m52 -37 c0 -30 -4 -55 -10
-55 -5 0 -10 25 -10 55 0 30 5 55 10 55 6 0 10 -25 10 -55z m87 18 l32 -38 1
38 c0 20 5 37 10 37 6 0 10 -25 10 -55 0 -66 -15 -72 -54 -22 l-26 32 0 -32
c0 -23 -5 -33 -15 -33 -12 0 -15 13 -15 55 0 66 12 70 57 18z m181 18 c3 -10
-3 -12 -25 -7 -34 8 -57 -11 -51 -41 2 -13 13 -18 38 -19 41 0 51 -19 15 -28
-49 -12 -93 32 -76 77 5 14 16 27 23 30 23 10 71 2 76 -12z m107 9 c4 -6 -7
-10 -24 -10 -35 0 -42 -17 -9 -22 32 -5 35 -28 4 -28 -14 0 -26 -4 -26 -10 0
-5 14 -10 30 -10 17 0 30 -4 30 -10 0 -5 -20 -10 -45 -10 l-45 0 0 48 c0 27 3
52 7 55 10 11 71 8 78 -3z m153 -13 c2 -11 -6 -30 -19 -43 l-22 -24 21 0 c12
0 22 -4 22 -10 0 -5 -18 -10 -40 -10 -22 0 -40 4 -40 8 0 5 14 21 30 37 19 19
27 32 20 39 -6 6 -14 5 -23 -2 -18 -15 -30 -3 -15 15 16 20 62 12 66 -10z m90
11 c7 -7 12 -29 12 -50 0 -43 -22 -61 -57 -47 -18 7 -23 16 -23 47 0 40 14 62
40 62 9 0 21 -5 28 -12z m108 -16 c25 -50 -13 -105 -56 -82 -23 12 -28 78 -8
98 19 19 51 10 64 -16z m72 -30 c2 -42 0 -52 -12 -52 -12 0 -16 10 -16 35 0
26 -4 35 -17 35 -14 0 -14 2 2 20 27 30 40 19 43 -38z m1206 7 c17 -14 33 -18
47 -14 18 6 21 4 16 -10 -4 -9 -7 -21 -7 -26 0 -5 -8 -2 -17 7 -10 9 -33 27
-52 40 -19 13 -30 24 -24 24 6 0 22 -9 37 -21z m-2165 -35 c-14 -14 -17 -14
-29 0 -10 13 -10 19 0 32 12 14 15 14 29 0 14 -15 14 -17 0 -32z m1030 0 c-14
-14 -17 -14 -29 0 -10 13 -10 19 0 32 12 14 15 14 29 0 14 -15 14 -17 0 -32z
m1441 21 c0 -8 -4 -15 -10 -15 -5 0 -10 7 -10 15 0 8 5 15 10 15 6 0 10 -7 10
-15z m3035 -27 c24 -23 57 -47 72 -54 19 -8 22 -13 11 -13 -20 -1 -25 -21 -5
-21 8 0 7 -4 -3 -10 -22 -14 -56 -12 -70 5 -20 24 -24 10 -5 -18 22 -34 11
-90 -26 -132 -36 -40 -65 -52 -152 -60 -60 -6 -70 -10 -91 -38 -14 -18 -33
-53 -44 -78 -15 -34 -27 -48 -48 -53 -15 -4 -31 -3 -35 1 -4 4 30 76 77 158
46 83 90 167 96 188 10 32 15 37 42 37 17 0 41 3 53 6 21 6 21 8 9 33 -8 14
-17 41 -21 59 l-7 32 51 0 c46 0 55 -4 96 -42z m2750 -17 c-3 -12 -13 -21 -22
-21 -11 0 -14 -6 -9 -22 4 -13 9 -41 12 -63 4 -35 1 -32 -19 24 -22 60 -47 91
-47 58 0 -8 -7 -20 -16 -28 -14 -12 -14 -10 -1 22 10 25 20 34 38 34 13 0 33
5 44 12 24 14 29 11 20 -16z m-6553 -8 c15 -7 33 -23 39 -36 7 -12 17 -26 23
-30 6 -5 -2 -6 -19 -2 -16 3 -43 9 -60 12 -28 5 -48 24 -51 48 -1 6 -2 15 -3
20 -1 6 -5 3 -11 -5 -5 -8 -12 -11 -17 -7 -12 13 20 27 47 20 14 -3 37 -12 52
-20z m3108 13 c0 -3 -25 -40 -56 -83 -110 -153 -204 -341 -204 -407 0 -36 -18
-42 -31 -9 -14 38 -5 76 40 169 49 103 178 311 199 324 17 10 52 14 52 6z
m1430 -2 c0 -3 -24 -40 -53 -82 -65 -94 -182 -288 -202 -336 -17 -40 -34 -46
-42 -16 -7 25 -9 25 -40 0 -30 -23 -56 -26 -72 -6 -14 17 -10 41 16 91 37 71
89 105 158 105 33 0 37 4 94 103 79 136 88 147 116 147 14 0 25 -3 25 -6z
m-1280 -48 c-27 -45 -25 -56 11 -56 43 0 32 -23 -15 -31 -20 -3 -41 -10 -46
-15 -20 -20 -139 -226 -161 -278 -24 -59 -41 -69 -59 -36 -13 24 -5 40 88 188
35 57 65 111 66 119 0 10 -9 19 -24 23 -25 7 -25 7 10 26 19 10 51 35 70 55
57 58 95 61 60 5z m1721 -7 c-28 -45 -27 -49 15 -49 31 0 35 -2 24 -15 -7 -8
-25 -15 -41 -15 -15 0 -34 -7 -43 -15 -23 -24 -112 -174 -152 -259 -20 -42
-39 -76 -43 -76 -13 0 -31 24 -31 43 0 17 -2 17 -22 3 -23 -16 -83 -21 -112
-10 -24 9 -20 61 9 110 28 48 67 80 111 89 16 4 39 12 52 18 40 19 46 -5 12
-48 -16 -21 -30 -42 -30 -46 0 -5 -7 -9 -16 -9 -12 0 -15 6 -11 21 8 30 -20
36 -48 9 -26 -25 -39 -62 -30 -91 5 -16 14 -19 50 -17 41 3 46 6 70 48 15 25
51 83 81 130 l55 85 -25 9 c-33 13 -33 24 2 37 15 6 45 27 67 48 64 62 93 61
56 0z m-4421 31 c0 -5 -4 -10 -10 -10 -5 0 -10 5 -10 10 0 6 5 10 10 10 6 0
10 -4 10 -10z m80 0 c0 -5 -4 -10 -10 -10 -5 0 -10 5 -10 10 0 6 5 10 10 10 6
0 10 -4 10 -10z m-30 -19 c0 -5 -9 -11 -20 -14 -20 -5 -26 3 -13 16 9 10 33 8
33 -2z m44 -17 c3 -8 2 -12 -4 -9 -6 3 -10 10 -10 16 0 14 7 11 14 -7z m1785
-40 c19 -23 22 -36 19 -74 -6 -59 -49 -144 -99 -195 -25 -26 -39 -50 -39 -66
0 -14 -8 -33 -18 -43 -18 -15 -19 -15 -30 9 -10 22 -18 25 -59 25 -55 1 -79
15 -94 58 -24 69 55 232 137 283 76 47 143 48 183 3z m-1802 10 c-3 -3 -12 -4
-19 -1 -8 3 -5 6 6 6 11 1 17 -2 13 -5z m5723 -14 c-12 -8 -11 -14 8 -39 12
-17 22 -34 22 -39 0 -5 11 -21 25 -36 27 -29 32 -51 13 -62 -7 -5 -8 -3 -3 5
4 8 -3 23 -18 39 -13 15 -36 48 -51 73 -25 44 -26 48 -10 63 9 10 19 14 22 11
4 -3 0 -10 -8 -15z m40 10 c0 -5 -4 -10 -10 -10 -5 0 -10 5 -10 10 0 6 5 10
10 10 6 0 10 -4 10 -10z m-6066 -39 c-6 -6 -34 20 -34 32 0 6 8 2 19 -9 10
-10 17 -21 15 -23z m-261 15 c54 -23 79 -53 72 -87 -5 -21 -2 -31 9 -35 9 -3
16 -13 16 -20 0 -8 11 -19 24 -24 16 -6 25 -19 28 -38 4 -25 0 -31 -19 -35
-27 -5 -33 0 -33 26 0 13 -5 17 -15 13 -8 -3 -15 -2 -15 3 0 4 -18 27 -40 50
-24 25 -40 51 -40 66 0 14 -3 25 -6 25 -10 0 -49 -23 -56 -34 -6 -8 -11 -6
-18 4 -15 23 -12 33 10 27 26 -7 47 18 30 38 -12 15 -6 35 11 35 5 0 24 -6 42
-14z m-2033 -5 c0 -6 -4 -13 -10 -16 -5 -3 -10 -25 -10 -48 l1 -42 39 43 c22
25 37 49 33 58 -4 11 4 14 36 14 23 0 41 -4 41 -10 0 -5 -6 -10 -13 -10 -7 0
-28 -15 -45 -33 l-33 -33 43 -82 c64 -122 63 -123 152 121 14 36 23 47 39 47
19 0 28 -17 67 -125 34 -95 49 -125 63 -125 15 0 17 12 17 115 0 70 -4 115
-10 115 -5 0 -10 5 -10 10 0 6 38 10 94 10 79 0 97 -3 120 -21 30 -24 34 -63
10 -98 -12 -17 -13 -26 -5 -34 6 -6 11 -29 11 -52 1 -37 2 -39 15 -21 21 27
30 13 13 -21 -10 -21 -21 -29 -47 -31 -48 -5 -71 20 -71 78 0 33 -5 50 -15 54
-12 4 -15 -5 -15 -49 0 -30 5 -55 10 -55 6 0 10 -7 10 -15 0 -13 -21 -15 -130
-15 -125 0 -142 4 -120 26 7 7 8 19 1 37 -8 21 -17 27 -41 27 -24 0 -33 -6
-41 -27 -7 -19 -7 -29 0 -31 6 -2 11 -10 11 -18 0 -11 -20 -14 -95 -14 -89 0
-95 1 -95 20 0 12 -8 35 -17 53 l-18 32 -3 -35 c-2 -19 1 -36 7 -38 6 -2 11
-10 11 -18 0 -10 -15 -14 -59 -14 -56 0 -89 14 -59 25 17 7 15 228 -1 233 -6
2 -9 8 -5 13 7 12 124 12 124 0z m810 0 c0 -5 -9 -11 -20 -14 -18 -5 -20 -14
-20 -116 0 -103 1 -111 19 -111 19 0 71 52 71 71 0 5 5 9 10 9 6 0 10 -25 10
-55 l0 -55 -105 0 c-87 0 -105 3 -105 15 0 8 5 15 10 15 6 0 10 42 10 107 0
85 -3 110 -17 125 -15 17 -13 18 60 18 43 0 77 -4 77 -9z m288 -7 c50 -35 68
-132 37 -198 -45 -94 -207 -87 -234 11 -23 82 -3 160 48 188 35 19 121 19 149
-1z m172 7 c0 -5 -5 -11 -11 -13 -8 -3 -4 -27 12 -76 12 -40 25 -72 28 -72 11
0 50 145 41 148 -23 8 -7 22 25 22 38 0 43 -6 21 -24 -7 -6 -33 -66 -56 -134
-38 -108 -46 -123 -64 -120 -17 2 -30 27 -67 128 -26 68 -52 126 -58 128 -6 2
-11 8 -11 13 0 5 32 9 70 9 39 0 70 -4 70 -9z m320 -11 c61 -43 64 -168 5
-227 -28 -28 -40 -33 -79 -33 -92 0 -136 44 -136 135 0 61 18 105 52 129 33
23 123 21 158 -4z m1505 10 c3 -5 1 -10 -4 -10 -6 0 -11 5 -11 10 0 6 2 10 4
10 3 0 8 -4 11 -10z m2745 -21 c0 -10 -2 -19 -4 -19 -2 0 -11 -3 -20 -6 -11
-4 -16 -1 -16 10 0 9 5 16 10 16 6 0 10 7 10 16 0 8 5 12 10 9 6 -3 10 -15 10
-26z m-2656 -24 c9 -13 12 -26 8 -29 -14 -9 -52 24 -52 44 0 25 23 17 44 -15z
m26 25 c12 -8 11 -10 -7 -10 -13 0 -23 5 -23 10 0 13 11 13 30 0z m1830 -40
c0 -23 -45 -39 -62 -22 -16 16 8 42 38 42 17 0 24 -6 24 -20z m3370 10 c8 -5
11 -10 6 -10 -5 0 -4 -6 1 -12 16 -20 25 -68 13 -68 -5 0 -10 9 -10 19 0 11
-12 33 -26 50 -25 31 -17 42 16 21z m-1395 -49 c3 -6 -9 -30 -27 -55 -25 -36
-34 -43 -45 -34 -8 6 -12 17 -9 24 7 19 -10 27 -34 14 -27 -14 -25 -31 5 -64
43 -47 31 -83 -42 -120 -33 -16 -113 -22 -113 -8 0 4 20 13 45 20 44 12 85 42
85 62 0 6 -11 20 -25 32 -35 31 -32 64 8 88 17 11 46 20 62 20 17 0 39 7 49
15 23 17 33 19 41 6z m-3720 -15 c10 -7 16 -20 12 -29 -8 -20 3 -30 19 -16 26
22 24 -11 -4 -43 -16 -18 -38 -47 -50 -64 -12 -17 -38 -40 -59 -49 -32 -15
-43 -16 -78 -6 -22 7 -46 13 -52 13 -15 2 -17 10 -5 24 5 5 16 29 26 54 37
100 133 159 191 116z m275 -5 c-5 -10 -16 -23 -24 -31 -9 -7 -16 -18 -16 -25
0 -43 -170 -179 -200 -160 -13 8 -13 82 0 90 5 3 14 25 21 48 12 46 34 77 56
77 16 0 16 -5 -2 -55 -8 -22 -14 -53 -15 -68 0 -25 2 -27 21 -16 16 8 18 13 9
19 -18 11 -4 29 18 23 22 -5 46 39 36 69 -9 29 10 43 60 45 41 1 45 0 36 -16z
m145 3 c36 -37 -18 -113 -95 -134 -30 -8 -40 -16 -40 -31 0 -11 7 -22 15 -25
8 -4 15 -13 15 -21 0 -12 -8 -14 -40 -10 -22 3 -40 1 -40 -4 0 -16 -37 -10
-61 10 l-24 19 25 21 c14 11 31 20 38 21 6 0 12 7 12 15 0 19 41 84 68 108 18
16 83 45 104 47 4 0 14 -7 23 -16z m779 4 c-5 -7 -21 -33 -36 -57 -30 -48 -37
-91 -14 -91 7 0 43 32 79 70 36 39 73 70 81 70 22 0 21 -5 -19 -70 -19 -32
-42 -74 -50 -94 -16 -38 -34 -48 -36 -18 -1 9 -1 20 0 25 2 15 -22 6 -51 -19
-38 -31 -81 -30 -86 4 -7 51 80 192 119 192 14 0 18 -4 13 -12z m1560 2 c19
-7 26 -17 26 -36 0 -19 4 -25 15 -20 22 8 18 -18 -7 -50 -61 -73 -95 -103
-131 -109 -132 -25 -106 162 30 210 21 8 39 14 40 15 1 0 13 -4 27 -10z m341
-53 c-65 -118 -39 -130 58 -27 60 64 97 87 97 59 0 -6 -8 -23 -18 -37 -11 -15
-37 -61 -58 -102 l-39 -75 -3 38 c-2 20 -5 37 -8 37 -3 0 -20 -11 -38 -25 -19
-14 -46 -25 -64 -25 -29 0 -32 3 -32 32 0 33 47 126 83 166 11 12 29 22 39 22
15 0 13 -8 -17 -63z m-2433 23 c-7 -67 -110 -216 -133 -193 -6 6 2 29 26 68
37 62 44 95 20 95 -8 0 -50 -34 -95 -75 -76 -72 -100 -83 -100 -49 0 11 -6 14
-22 9 -20 -5 -21 -4 -5 5 9 6 21 9 26 6 4 -3 32 31 62 74 41 61 59 80 77 80
19 0 21 -3 12 -19 -16 -31 -12 -33 28 -8 71 45 109 48 104 7z m840 13 c29 -26
21 -32 -35 -26 -47 5 -56 2 -84 -21 -34 -29 -58 -82 -42 -92 15 -9 58 23 77
57 17 29 48 47 60 35 7 -8 -60 -146 -71 -146 -5 0 -11 9 -14 20 -5 20 -6 20
-39 -5 -18 -14 -44 -25 -58 -25 -23 0 -26 4 -26 33 0 40 46 115 89 146 57 41
114 51 143 24z m538 11 c0 -3 -15 -31 -34 -62 -19 -32 -59 -102 -89 -157 -138
-249 -287 -382 -287 -257 0 26 54 134 81 162 42 44 90 80 106 80 10 0 0 -17
-30 -49 -66 -70 -111 -171 -77 -171 26 0 190 258 190 299 0 6 -17 0 -37 -13
-21 -14 -47 -26 -58 -28 -30 -5 -31 41 -1 99 31 60 61 93 87 93 19 0 18 -3 -9
-42 -40 -59 -49 -88 -25 -88 22 1 55 30 107 93 21 26 47 47 57 47 11 0 19 -3
19 -6z m570 -3 c0 -17 -73 -130 -81 -125 -5 3 -9 16 -9 30 0 13 -4 24 -9 24
-17 0 -60 -41 -88 -85 -26 -43 -57 -64 -71 -51 -7 8 28 81 73 152 23 36 41 54
55 54 17 0 19 -4 14 -26 l-6 -25 43 30 c43 29 79 40 79 22z m-910 -10 c0 -5
-18 -39 -40 -75 -23 -37 -48 -82 -57 -101 -9 -19 -21 -35 -25 -35 -23 0 -17
38 16 109 20 42 36 82 36 88 0 6 6 14 13 16 21 9 57 7 57 -2z m3360 -31 c0 -5
-7 -7 -15 -4 -8 4 -15 8 -15 10 0 2 7 4 15 4 8 0 15 -4 15 -10z m-85 -12 c-11
-6 -23 -16 -27 -22 -4 -6 -10 -7 -14 -3 -11 11 17 37 40 37 21 -1 21 -1 1 -12z
m-4830 -8 c3 -5 1 -10 -4 -10 -6 0 -11 5 -11 10 0 6 2 10 4 10 3 0 8 -4 11
-10z m5015 -3 c0 -8 -12 -19 -27 -26 -27 -12 -27 -13 -8 -27 15 -11 16 -14 3
-14 -15 0 -28 19 -28 41 0 5 9 9 20 9 11 0 23 7 26 15 8 19 14 19 14 2z
m-1310 -7 c0 -5 -5 -10 -11 -10 -5 0 -7 5 -4 10 3 6 8 10 11 10 2 0 4 -4 4
-10z m270 6 c0 -3 -4 -8 -10 -11 -5 -3 -10 -1 -10 4 0 6 5 11 10 11 6 0 10 -2
10 -4z m320 -16 c0 -13 -48 -35 -57 -27 -8 8 26 36 45 37 6 0 12 -5 12 -10z
m112 -15 c7 -32 -9 -42 -28 -19 -14 18 -15 18 -9 -3 6 -20 4 -22 -16 -14 -13
4 -25 14 -27 22 -3 8 -1 11 3 7 4 -4 19 2 33 12 32 26 39 25 44 -5z m748 15
c0 -5 -2 -10 -4 -10 -3 0 -8 5 -11 10 -3 6 -1 10 4 10 6 0 11 -4 11 -10z
m-1000 -26 c0 -16 -16 -19 -25 -4 -8 13 4 32 16 25 5 -4 9 -13 9 -21z m589 16
c4 0 8 -7 8 -15 0 -11 -4 -12 -11 -5 -5 5 -18 10 -29 10 -10 0 -15 5 -12 11 4
6 14 8 22 5 8 -3 18 -6 22 -6z m196 -11 c-9 -14 -58 -20 -69 -8 -8 9 -7 11 5
6 9 -3 21 -2 28 2 15 10 42 10 36 0z m-720 -17 c-3 -3 -11 0 -18 7 -9 10 -8
11 6 5 10 -3 15 -9 12 -12z m-1035 -12 c-19 -12 -30 -12 -30 -1 0 10 31 20 40
14 2 -2 -2 -8 -10 -13z m450 1 c0 -18 -18 -21 -30 -6 -10 13 -9 15 9 15 11 0
21 -4 21 -9z m1184 -25 c42 -40 44 -46 15 -46 -11 0 -18 4 -15 9 3 5 -8 23
-26 40 -44 42 -20 39 26 -3z m-5260 -1 c-4 -8 -11 -15 -16 -15 -6 0 -5 6 2 15
7 8 14 15 16 15 2 0 1 -7 -2 -15z m4971 -15 c3 -6 0 -13 -9 -16 -8 -3 -13 -11
-10 -19 7 -17 -23 -45 -48 -45 -14 0 -18 -5 -14 -16 3 -8 2 -12 -4 -9 -17 11
-11 35 9 35 12 0 26 13 35 32 15 29 15 33 1 41 -23 12 -8 29 15 17 10 -6 22
-15 25 -20z m-4355 0 c0 -5 -4 -10 -10 -10 -5 0 -10 5 -10 10 0 6 5 10 10 10
6 0 10 -4 10 -10z m3460 -6 c0 -8 -5 -12 -10 -9 -6 4 -8 11 -5 16 9 14 15 11
15 -7z m250 6 c0 -5 -4 -10 -10 -10 -5 0 -10 5 -10 10 0 6 5 10 10 10 6 0 10
-4 10 -10z m98 -7 c2 -8 -5 -13 -17 -13 -12 0 -21 6 -21 16 0 18 31 15 38 -3z
m165 -3 c4 -17 2 -20 -13 -15 -11 3 -20 0 -24 -10 -3 -9 -10 -13 -16 -10 -5 3
-10 2 -10 -3 0 -5 -13 -9 -30 -10 -20 0 -30 4 -30 14 0 8 4 14 10 14 5 0 7 6
4 14 -4 12 3 14 35 12 23 -2 44 1 47 5 9 15 21 10 27 -11z m622 -30 c-3 -5
-12 -10 -18 -10 -7 0 -6 4 3 10 19 12 23 12 15 0z m-6755 -9 c0 -5 -10 -11
-22 -13 -29 -4 -26 -22 4 -26 13 -2 29 -11 35 -20 11 -13 10 -19 -4 -34 -18
-20 -48 -24 -58 -8 -4 6 5 10 19 10 16 0 26 6 26 15 0 9 -9 15 -24 15 -33 0
-50 23 -36 49 11 21 60 30 60 12z m1980 -6 c0 -9 -6 -12 -15 -9 -8 4 -12 10
-9 15 8 14 24 10 24 -6z m-3291 -6 c55 -19 62 -88 11 -104 -25 -8 -80 3 -80
16 0 23 23 99 30 99 4 0 22 -5 39 -11z m6065 -10 c-3 -5 -10 -7 -15 -3 -5 3
-7 10 -3 15 3 5 10 7 15 3 5 -3 7 -10 3 -15z m936 -9 c0 -25 -18 -36 -26 -16
-8 21 3 49 16 41 5 -3 10 -15 10 -25z m-5770 14 c0 -4 -7 -12 -16 -18 -12 -9
-13 -17 -5 -39 13 -34 14 -57 2 -57 -5 0 -14 20 -20 44 -9 37 -14 43 -31 39
-34 -9 -22 13 13 25 39 12 57 14 57 6z m4871 -7 c-1 -12 -15 -9 -19 4 -3 6 1
10 8 8 6 -3 11 -8 11 -12z m1023 -2 c3 -8 1 -15 -3 -15 -5 0 -16 -3 -25 -6
-10 -4 -16 -1 -16 9 0 14 12 24 31 26 4 1 9 -6 13 -14z m-3881 -9 c14 -11 15
-15 4 -19 -15 -5 -37 10 -37 25 0 12 12 9 33 -6z m4337 -1 c0 -8 -7 -15 -15
-15 -16 0 -20 12 -8 23 11 12 23 8 23 -8z m-7438 -12 c18 -3 28 -13 33 -30 l6
-26 24 23 c34 32 45 16 13 -18 -14 -15 -28 -36 -30 -46 -5 -28 -24 -20 -20 9
2 13 -4 36 -12 52 -10 19 -15 22 -16 11 0 -9 -7 -21 -16 -26 -13 -7 -14 -13
-5 -30 7 -14 8 -23 1 -27 -6 -4 -15 7 -21 24 -12 35 -29 41 -29 11 0 -11 -4
-20 -10 -20 -13 0 -13 25 1 73 9 34 13 38 32 32 12 -4 34 -9 49 -12z m3334 2
c4 -8 11 -15 17 -15 6 0 18 -7 28 -16 17 -16 17 -17 -3 -34 -12 -9 -30 -15
-40 -12 -20 5 -25 22 -7 22 7 0 5 10 -5 25 -9 13 -16 29 -16 35 0 15 20 12 26
-5z m124 5 c0 -5 -7 -10 -15 -10 -8 0 -15 5 -15 10 0 6 7 10 15 10 8 0 15 -4
15 -10z m2620 0 c0 -5 -8 -10 -19 -10 -10 0 -35 -11 -55 -25 -43 -29 -77 -35
-56 -10 27 32 130 68 130 45z m970 -5 c14 -16 10 -18 -14 -9 -9 3 -16 10 -16
15 0 14 16 11 30 -6z m-6045 -42 c24 -32 32 -49 24 -52 -7 -2 -15 1 -17 7 -5
15 -53 4 -68 -16 -12 -16 -92 -33 -100 -21 -3 5 -8 31 -11 59 l-6 50 39 -1
c39 -1 39 -1 12 -12 -39 -15 -37 -38 2 -30 18 3 30 1 30 -5 0 -6 -10 -12 -22
-14 -37 -5 -34 -28 5 -28 33 0 34 1 46 55 7 30 16 55 21 55 5 0 25 -21 45 -47z
m6095 37 c0 -5 -7 -10 -15 -10 -8 0 -15 5 -15 10 0 6 7 10 15 10 8 0 15 -4 15
-10z m108 -9 c3 -10 -1 -13 -14 -9 -16 4 -19 -1 -19 -25 0 -26 -4 -31 -25 -31
-41 0 -59 15 -49 43 8 19 12 21 24 11 8 -6 19 -9 25 -5 8 5 5 11 -6 20 -15 11
-12 12 21 11 23 -1 40 -7 43 -15z m62 -1 c0 -10 -26 -20 -34 -13 -14 14 -5 31
14 26 11 -3 20 -9 20 -13z m230 0 c-33 -26 -60 -26 -29 0 13 10 31 19 39 19
10 1 6 -6 -10 -19z m-4544 -5 c12 -12 13 -15 2 -17 -7 0 -20 -2 -28 -3 -24 -2
-32 6 -19 21 15 18 27 18 45 -1z m3840 -22 c-11 -11 -19 6 -11 24 8 17 8 17
12 0 3 -10 2 -21 -1 -24z m-3646 19 c0 -4 -6 -14 -12 -21 -11 -10 -10 -11 3
-6 10 4 28 -4 47 -19 25 -22 31 -24 36 -10 3 8 11 12 17 8 8 -5 6 -10 -5 -16
-28 -16 -18 -30 15 -23 22 5 29 4 25 -4 -4 -6 -15 -11 -25 -11 -40 0 -143 73
-134 96 5 15 33 20 33 6z m110 -2 c0 -5 -4 -10 -10 -10 -5 0 -10 5 -10 10 0 6
5 10 10 10 6 0 10 -4 10 -10z m3036 -2 c4 -7 4 -10 -1 -6 -4 4 -16 3 -27 -3
-22 -12 -52 -4 -43 11 9 14 62 12 71 -2z m-6082 -4 c9 -3 16 -13 16 -20 0 -12
-4 -12 -20 -4 -12 6 -30 8 -41 5 -16 -5 -19 -14 -17 -38 3 -30 5 -32 41 -31
46 2 46 -19 0 -24 -37 -4 -74 36 -66 68 10 36 52 57 87 44z m600 -31 c8 -54 7
-73 -4 -73 -5 0 -10 11 -10 25 0 35 -13 31 -28 -7 l-12 -33 -21 33 c-26 40
-33 41 -25 1 4 -22 2 -29 -7 -27 -14 5 -23 108 -8 108 5 0 20 -17 32 -37 l23
-36 17 41 c22 52 35 53 43 5z m5293 31 c-3 -3 -12 -4 -19 -1 -8 3 -5 6 6 6 11
1 17 -2 13 -5z m933 -4 c0 -5 -4 -10 -10 -10 -5 0 -10 5 -10 10 0 6 5 10 10
10 6 0 10 -4 10 -10z m-6776 -53 c1 -35 4 -42 21 -42 15 0 22 10 29 43 5 23
13 42 19 42 14 0 -1 -82 -18 -99 -18 -19 -62 -6 -70 20 -8 23 3 94 12 85 4 -3
7 -25 7 -49z m7151 37 c-9 -9 -19 -13 -23 -10 -3 4 0 11 8 16 24 15 33 11 15
-6z m154 3 c14 -17 4 -27 -26 -27 -21 0 -22 3 -13 20 13 23 23 25 39 7z
m-7142 -13 c3 -9 1 -25 -6 -36 -9 -15 -9 -23 0 -34 6 -8 9 -18 5 -21 -4 -4
-18 6 -31 22 l-24 30 -1 -27 c0 -16 -4 -28 -10 -28 -5 0 -10 25 -10 55 l0 55
35 0 c24 0 38 -5 42 -16z m93 6 c0 -5 -13 -10 -30 -10 -16 0 -30 -4 -30 -10 0
-5 11 -10 24 -10 37 0 41 -17 6 -25 -38 -8 -34 -28 6 -36 27 -6 27 -7 -8 -8
-21 0 -38 4 -39 9 0 6 -1 28 -1 50 0 22 1 42 1 45 2 10 71 5 71 -5z m102 -7
c39 -35 9 -93 -47 -93 -28 0 -33 4 -39 31 -13 69 -9 79 31 79 20 0 45 -7 55
-17z m2888 13 c0 -11 -19 -15 -25 -6 -3 5 1 10 9 10 9 0 16 -2 16 -4z m3430 0
c0 -2 -9 -6 -20 -9 -11 -3 -20 -1 -20 4 0 5 9 9 20 9 11 0 20 -2 20 -4z m556
-11 c14 -13 13 -15 -5 -15 -21 0 -35 13 -24 24 9 9 13 8 29 -9z m-4459 -20 c8
-24 -1 -27 -32 -11 -23 12 -24 15 -8 19 31 8 33 7 40 -8z m3817 -16 c-3 -5
-10 -7 -15 -3 -5 3 -7 10 -3 15 3 5 10 7 15 3 5 -3 7 -10 3 -15z m136 11 c0
-5 -5 -10 -11 -10 -5 0 -7 5 -4 10 3 6 8 10 11 10 2 0 4 -4 4 -10z m405 0 c3
-5 -1 -10 -9 -10 -9 0 -16 5 -16 10 0 6 4 10 9 10 6 0 13 -4 16 -10z m55 0 c0
-5 -4 -10 -10 -10 -5 0 -10 5 -10 10 0 6 5 10 10 10 6 0 10 -4 10 -10z m-7340
-10 c0 -13 -11 -13 -30 0 -12 8 -11 10 8 10 12 0 22 -4 22 -10z m5827 -17 c-4
-30 -15 -37 -36 -24 -19 12 -4 51 20 51 16 0 19 -6 16 -27z m1589 0 c-7 -7
-26 7 -26 19 0 6 6 6 15 -2 9 -7 13 -15 11 -17z m-4152 2 c3 -9 0 -15 -9 -15
-9 0 -12 6 -9 15 4 8 7 15 9 15 2 0 5 -7 9 -15z m-228 -9 c10 -8 16 -17 13
-20 -3 -4 -17 2 -30 13 -27 23 -13 28 17 7z m284 -7 c0 -14 -17 -10 -23 5 -4
10 -1 13 9 9 7 -3 14 -9 14 -14z m150 6 c21 -25 1 -31 -22 -7 -18 18 -19 22
-6 22 8 0 21 -7 28 -15z m3044 -1 c10 -25 7 -32 -15 -39 -13 -4 -18 -12 -15
-22 3 -8 -3 -26 -14 -40 -11 -14 -20 -31 -20 -37 0 -15 -73 -46 -83 -36 -19
18 -2 54 29 63 27 8 34 17 50 68 15 48 23 59 40 59 12 0 25 -7 28 -16z m81 7
c-12 -10 -65 -24 -65 -16 0 7 40 24 60 24 8 1 10 -2 5 -8z m895 -16 c10 -12
10 -15 -4 -15 -9 0 -16 7 -16 15 0 8 2 15 4 15 2 0 9 -7 16 -15z m-4050 1 c0
-11 -19 -15 -25 -6 -3 5 1 10 9 10 9 0 16 -2 16 -4z m2689 -23 l11 -24 -29 17
c-31 18 -33 31 -7 31 8 0 19 -11 25 -24z m611 17 c0 -5 -4 -10 -10 -10 -5 0
-10 5 -10 10 0 6 5 10 10 10 6 0 10 -4 10 -10z m302 4 c3 -3 4 -14 1 -24 -4
-15 -9 -17 -23 -10 -29 16 -33 40 -6 40 12 0 25 -3 28 -6z m123 -4 c3 -6 17
-7 31 -4 27 7 33 -13 12 -34 -10 -10 -10 -15 0 -21 15 -9 9 -10 -114 -15 -47
-2 -71 1 -71 8 0 7 27 12 66 14 36 2 70 7 75 12 11 11 -38 24 -59 16 -25 -9
-17 2 13 18 33 18 39 19 47 6z m199 1 c9 -14 -22 -22 -52 -14 l-27 7 25 7 c36
10 48 10 54 0z m477 -37 l-9 -39 -1 36 c-1 20 2 39 6 42 12 13 13 0 4 -39z
m-4491 21 c0 -16 14 -24 45 -29 16 -2 75 -64 75 -78 0 -14 -13 -8 -36 17 -26
29 -34 31 -34 11 0 -24 -24 -24 -53 0 -16 13 -35 24 -43 24 -13 0 -13 -3 0
-22 22 -32 20 -35 -19 -40 -31 -4 -35 -1 -35 20 0 14 -4 21 -11 17 -6 -4 -5 2
3 14 7 12 19 19 25 16 19 -7 43 5 43 21 0 8 5 14 10 14 6 0 10 7 10 15 0 8 5
15 10 15 6 0 10 -7 10 -15z m1153 -5 c3 -11 1 -20 -4 -20 -5 0 -9 2 -9 4 0 2
-3 11 -6 20 -3 9 -2 16 4 16 5 0 12 -9 15 -20z m2132 10 c-3 -5 -11 -10 -16
-10 -6 0 -7 5 -4 10 3 6 11 10 16 10 6 0 7 -4 4 -10z m205 -3 c11 3 20 1 20
-5 0 -13 -44 -24 -48 -12 -2 5 -11 7 -20 4 -13 -4 -13 -2 3 11 11 8 21 12 23
6 2 -5 12 -7 22 -4z m584 -2 c3 -9 0 -15 -9 -15 -8 0 -15 7 -15 15 0 8 4 15 9
15 5 0 11 -7 15 -15z m-3084 -5 c0 -5 -4 -10 -10 -10 -5 0 -10 5 -10 10 0 6 5
10 10 10 6 0 10 -4 10 -10z m3760 0 c0 -5 -2 -10 -4 -10 -3 0 -8 5 -11 10 -3
6 -1 10 4 10 6 0 11 -4 11 -10z m-6180 -10 c0 -5 -4 -10 -9 -10 -5 0 -13 -9
-16 -20 -8 -24 -33 -26 -42 -4 -4 11 1 22 12 30 22 16 55 18 55 4z m1680 -16
c28 -14 49 -31 47 -37 -5 -16 -40 -9 -50 9 -4 8 -13 14 -19 14 -9 0 -9 -3 0
-12 14 -14 16 -58 3 -58 -5 0 -11 8 -14 19 -6 23 -66 35 -74 14 -6 -16 -19 -9
-34 19 -8 15 -8 19 0 14 6 -4 14 0 17 8 3 9 17 16 30 16 13 0 24 5 24 10 0 15
14 12 70 -16z m3060 16 c0 -5 -4 -10 -10 -10 -5 0 -10 5 -10 10 0 6 5 10 10
10 6 0 10 -4 10 -10z m880 -9 c5 -11 10 -22 10 -26 0 -11 -38 14 -44 30 -8 22
21 19 34 -4z m-4421 -6 c-3 -20 -72 -31 -109 -19 -34 12 -34 12 -10 18 70 15
121 16 119 1z m178 9 c-3 -3 -12 -4 -19 -1 -8 3 -5 6 6 6 11 1 17 -2 13 -5z
m4193 -4 c0 -5 -2 -10 -4 -10 -3 0 -8 5 -11 10 -3 6 -1 10 4 10 6 0 11 -4 11
-10z m-3136 -16 c3 -8 2 -12 -4 -9 -6 3 -10 10 -10 16 0 14 7 11 14 -7z m1286
6 c0 -5 -11 -10 -25 -10 -14 0 -25 5 -25 10 0 6 11 10 25 10 14 0 25 -4 25
-10z m1705 1 c3 -5 -5 -11 -17 -14 l-23 -4 24 -9 23 -10 -26 -17 c-19 -13 -26
-14 -27 -5 0 8 -3 8 -6 -2 -4 -8 -13 -20 -21 -26 -12 -9 -10 -13 12 -27 37
-25 32 -37 -14 -37 -22 0 -40 5 -40 10 0 6 -9 10 -20 10 -11 0 -20 7 -20 15 0
8 5 15 10 15 6 0 10 5 10 12 0 9 -3 9 -12 0 -7 -7 -18 -12 -25 -12 -11 0 -11
5 -3 20 6 10 16 18 23 15 39 -12 68 -15 63 -6 -4 5 1 17 10 25 8 9 13 16 9 16
-3 0 -1 9 5 20 11 21 54 28 65 11z m-4367 -34 c5 -23 -10 -21 -26 4 -12 18
-11 20 5 17 10 -2 19 -11 21 -21z m3040 1 c3 -14 -3 -18 -25 -18 -35 0 -58 14
-48 29 11 19 69 9 73 -11z m830 10 c-5 -15 -58 -24 -58 -9 0 9 20 17 48 20 8
0 12 -5 10 -11z m132 -13 c-12 -15 -8 -16 36 -13 38 2 49 0 49 -12 0 -8 -6
-14 -14 -12 -7 1 -18 -4 -25 -12 -14 -18 -76 -10 -76 10 0 8 -4 14 -10 14 -5
0 -10 -7 -10 -16 0 -13 -7 -15 -31 -10 -17 3 -45 6 -61 6 -17 0 -27 4 -23 10
3 6 18 7 32 4 17 -5 30 -2 37 7 11 13 97 48 105 42 2 -1 -2 -10 -9 -18z m405
15 c3 -5 1 -10 -4 -10 -6 0 -11 5 -11 10 0 6 2 10 4 10 3 0 8 -4 11 -10z
m-1245 -4 c0 -11 -19 -15 -25 -6 -3 5 1 10 9 10 9 0 16 -2 16 -4z m1370 -16
c0 -5 -7 -7 -15 -4 -8 4 -12 10 -9 15 6 11 24 2 24 -11z m-30 -42 c0 -13 28
-9 33 5 3 6 10 0 16 -16 23 -59 7 -75 -32 -33 -22 24 -76 48 -63 28 3 -6 2
-20 -2 -32 -8 -21 -8 -21 -22 4 -9 19 -19 25 -32 20 -12 -4 -18 0 -18 11 0 12
-6 15 -20 10 -11 -4 -20 -2 -20 4 0 13 13 13 62 2 40 -9 54 3 41 36 -5 12 1
10 25 -7 18 -13 32 -27 32 -32z m-1970 32 c0 -5 -5 -10 -11 -10 -5 0 -7 5 -4
10 3 6 8 10 11 10 2 0 4 -4 4 -10z m1595 0 c3 -5 2 -10 -4 -10 -5 0 -13 5 -16
10 -3 6 -2 10 4 10 5 0 13 -4 16 -10z m130 0 c-3 -5 -11 -10 -16 -10 -6 0 -7
5 -4 10 3 6 11 10 16 10 6 0 7 -4 4 -10z m-4450 -10 c-3 -5 -12 -10 -18 -10
-7 0 -6 4 3 10 19 12 23 12 15 0z m318 3 c-7 -2 -21 -2 -30 0 -10 3 -4 5 12 5
17 0 24 -2 18 -5z m2825 -9 c-9 -9 -21 -13 -27 -10 -20 13 -11 26 16 26 25 0
26 -1 11 -16z m-798 -13 c0 -12 -35 -20 -51 -11 -11 8 -7 9 44 19 4 0 7 -3 7
-8z m35 -1 c3 -5 -1 -10 -10 -10 -9 0 -13 5 -10 10 3 6 8 10 10 10 2 0 7 -4
10 -10z m155 0 c0 -5 -7 -7 -15 -4 -8 4 -17 -1 -21 -10 -3 -9 -13 -16 -21 -16
-8 0 -11 5 -7 12 5 8 -3 9 -29 5 -35 -5 -54 3 -40 17 10 10 133 7 133 -4z m83
-4 c1 -5 -6 -14 -15 -20 -13 -8 -21 -7 -30 2 -10 10 -10 15 2 22 17 11 40 9
43 -4z m116 -7 c-16 -10 -23 -4 -14 10 3 6 11 8 17 5 6 -4 5 -9 -3 -15z m221
17 c0 -3 -4 -8 -10 -11 -5 -3 -10 -1 -10 4 0 6 5 11 10 11 6 0 10 -2 10 -4z
m-2675 -16 c3 -5 1 -10 -4 -10 -6 0 -11 5 -11 10 0 6 2 10 4 10 3 0 8 -4 11
-10z m102 4 c-3 -3 -12 -4 -19 -1 -8 3 -5 6 6 6 11 1 17 -2 13 -5z m56 -8 c4
-10 1 -13 -8 -9 -8 3 -12 9 -9 14 7 12 11 11 17 -5z m417 4 c0 -5 -5 -10 -11
-10 -5 0 -7 5 -4 10 3 6 8 10 11 10 2 0 4 -4 4 -10z m49 -4 c10 -12 8 -13 -8
-9 -12 3 -21 9 -21 14 0 14 16 11 29 -5z m1940 -3 c3 -2 -9 -3 -27 -1 -18 1
-32 6 -32 10 0 8 49 0 59 -9z m-6074 -3 c-4 -6 -11 -8 -16 -5 -5 4 -9 -3 -9
-14 0 -10 6 -21 12 -23 9 -3 8 -9 -5 -22 -9 -9 -22 -14 -28 -11 -10 7 -94 17
-134 16 -19 0 -19 1 -2 10 28 17 150 58 170 59 10 0 15 -5 12 -10z m4343 -2
c16 -16 15 -28 -2 -28 -7 0 -16 9 -19 20 -6 23 3 26 21 8z m1817 -5 c20 -15
19 -15 -5 -9 -14 3 -34 6 -45 6 -17 0 -17 2 -5 10 21 13 32 12 55 -7z m385 -9
c0 -16 -16 -19 -25 -4 -8 13 4 32 16 25 5 -4 9 -13 9 -21z m-2776 0 c9 -24 7
-28 -9 -14 -17 14 -20 30 -6 30 5 0 12 -7 15 -16z m2451 6 c-3 -5 -10 -10 -16
-10 -5 0 -9 5 -9 10 0 6 7 10 16 10 8 0 12 -4 9 -10z m235 -11 c0 -5 -3 -9 -7
-10 -5 0 -16 -2 -25 -4 -10 -2 -20 1 -24 6 -3 5 2 9 10 9 9 0 16 4 16 10 0 5
7 7 15 4 8 -4 15 -10 15 -15z m840 11 c0 -5 -4 -10 -10 -10 -5 0 -10 5 -10 10
0 6 5 10 10 10 6 0 10 -4 10 -10z m-3437 -20 c-3 -11 -9 -20 -14 -20 -10 0
-12 24 -2 33 13 13 21 7 16 -13z m124 6 c33 9 48 -14 26 -38 -17 -19 -38 -25
-28 -8 3 6 3 10 -2 10 -19 1 -45 29 -37 41 6 10 9 10 12 1 2 -7 13 -10 29 -6z
m2373 10 c0 -3 -4 -8 -10 -11 -5 -3 -10 -1 -10 4 0 6 5 11 10 11 6 0 10 -2 10
-4z m1048 -8 c20 -20 14 -44 -14 -56 -17 -8 -23 -9 -19 -1 10 15 -31 50 -49
43 -9 -4 -16 -1 -16 6 0 8 9 11 24 8 14 -3 31 -1 38 3 17 12 22 11 36 -3z
m-7278 -22 c0 -2 -6 -9 -13 -15 -10 -8 -14 -7 -14 4 0 8 6 15 14 15 7 0 13 -2
13 -4z m3429 -7 c-17 -11 -52 -12 -46 -1 3 4 17 8 33 9 19 1 23 -1 13 -8z
m857 -10 c19 -22 19 -22 -3 -8 -13 8 -23 17 -23 21 0 12 6 9 26 -13z m-3694
-6 c43 -9 76 -19 73 -22 -13 -13 -120 2 -143 20 -30 23 -27 23 70 2z m5782 11
c22 -9 20 -34 -3 -34 -21 0 -45 23 -34 33 8 9 17 9 37 1z m1146 -4 c0 -5 -9
-10 -19 -10 -11 0 -23 5 -26 10 -4 6 5 10 19 10 14 0 26 -4 26 -10z m-7573 -6
c-3 -3 -12 -4 -19 -1 -8 3 -5 6 6 6 11 1 17 -2 13 -5z m148 -4 c4 -6 10 -8 14
-6 4 3 13 0 21 -6 12 -8 12 -9 -2 -4 -10 3 -20 0 -24 -6 -4 -7 -10 -5 -16 6
-5 9 -14 16 -21 16 -8 0 -8 -3 2 -9 9 -6 6 -8 -12 -8 -20 0 -23 2 -14 13 14
16 43 18 52 4z m2475 -6 c0 -8 -4 -12 -10 -9 -5 3 -10 10 -10 16 0 5 5 9 10 9
6 0 10 -7 10 -16z m1144 1 c3 -8 1 -15 -3 -15 -5 0 -11 7 -15 15 -3 8 -1 15 3
15 5 0 11 -7 15 -15z m1796 -9 c0 -3 -4 -8 -10 -11 -5 -3 -10 -1 -10 4 0 6 5
11 10 11 6 0 10 -2 10 -4z m1960 -6 c0 -5 -5 -10 -11 -10 -5 0 -7 5 -4 10 3 6
8 10 11 10 2 0 4 -4 4 -10z"/>
<path d="M7360 1155 c0 -14 5 -25 10 -25 6 0 10 11 10 25 0 14 -4 25 -10 25
-5 0 -10 -11 -10 -25z"/>
<path d="M7470 1161 c0 -11 5 -23 10 -26 6 -4 10 5 10 19 0 14 -4 26 -10 26
-5 0 -10 -9 -10 -19z"/>
<path d="M1494 976 c-9 -23 0 -51 16 -51 10 0 15 10 15 29 0 32 -21 47 -31 22z"/>
<path d="M1594 976 c-9 -23 0 -51 16 -51 10 0 15 10 15 29 0 32 -21 47 -31 22z"/>
<path d="M6138 803 c-16 -4 -98 -127 -98 -146 0 -16 87 -6 118 13 44 27 70 97
45 120 -12 12 -46 18 -65 13z"/>
<path d="M2440 870 c0 -5 5 -10 10 -10 6 0 10 5 10 10 0 6 -4 10 -10 10 -5 0
-10 -4 -10 -10z"/>
<path d="M6708 620 c-20 -12 -58 -72 -58 -93 0 -26 38 -7 80 40 22 25 37 49
34 54 -7 12 -35 11 -56 -1z"/>
<path d="M4774 791 c-113 -69 -185 -319 -87 -299 14 3 17 11 15 36 -3 32 19
82 37 82 5 0 11 -13 15 -30 3 -16 10 -30 15 -30 27 0 91 138 91 195 0 36 -17
65 -38 65 -9 0 -31 -9 -48 -19z"/>
<path d="M1010 720 c0 -36 4 -50 14 -50 26 0 36 66 14 88 -22 22 -28 13 -28
-38z"/>
<path d="M732 663 c-17 -31 -15 -42 8 -40 21 1 23 10 11 42 -8 19 -8 19 -19
-2z"/>
<path d="M1490 751 c-17 -32 -13 -187 6 -205 8 -9 19 -16 24 -16 5 0 16 7 24
16 20 19 23 193 4 212 -18 18 -46 14 -58 -7z"/>
<path d="M1982 758 c-8 -8 -12 -45 -12 -110 0 -89 2 -98 21 -109 33 -17 49 7
56 87 6 85 -6 138 -33 142 -10 1 -25 -3 -32 -10z"/>
<path d="M3686 610 c-38 -45 -47 -120 -15 -120 6 0 7 4 4 10 -3 5 -1 18 4 27
9 16 10 16 11 -4 0 -28 11 -29 33 -5 21 23 22 36 3 29 -8 -3 -20 0 -26 8 -9
10 -3 19 25 40 41 32 44 45 11 45 -15 0 -34 -12 -50 -30z"/>
<path d="M4116 609 c-41 -49 -32 -63 23 -34 27 13 46 47 33 59 -12 13 -32 4
-56 -25z"/>
<path d="M6477 630 c-29 -23 -63 -101 -54 -125 10 -24 53 -18 71 10 20 30 20
35 1 35 -24 0 -17 27 12 48 17 13 24 25 20 36 -8 21 -19 20 -50 -4z"/>
<path d="M612 388 c-11 -41 -7 -48 23 -48 37 0 51 34 25 60 -28 28 -38 25 -48
-12z"/>
<path d="M730 375 c0 -8 9 -15 20 -15 24 0 27 15 4 24 -22 9 -24 8 -24 -9z"/>
<path d="M1750 351 c0 -12 6 -21 15 -21 8 0 15 4 15 9 0 5 -7 14 -15 21 -13
10 -15 9 -15 -9z"/>
<path d="M1160 322 c0 -14 11 -21 26 -15 21 8 17 23 -6 23 -11 0 -20 -4 -20
-8z"/>
<path d="M1341 308 c1 -43 12 -56 37 -47 46 17 35 69 -14 69 -18 0 -24 -5 -23
-22z"/>
<path d="M7310 150 c0 -5 5 -10 11 -10 5 0 7 5 4 10 -3 6 -8 10 -11 10 -2 0
-4 -4 -4 -10z"/>
<path d="M4420 201 c0 -5 9 -7 20 -4 11 3 20 7 20 9 0 2 -9 4 -20 4 -11 0 -20
-4 -20 -9z"/>
<path d="M9153 1195 c0 -44 2 -61 4 -37 2 23 2 59 0 80 -2 20 -4 1 -4 -43z"/>
<path d="M9120 1115 c0 -8 2 -15 4 -15 2 0 6 7 10 15 3 8 1 15 -4 15 -6 0 -10
-7 -10 -15z"/>
<path d="M3377 802 c-19 -4 -97 -115 -97 -138 0 -16 87 -8 117 12 28 18 55 69
51 97 -3 22 -38 36 -71 29z m30 -38 c-3 -3 -12 -4 -19 -1 -8 3 -5 6 6 6 11 1
17 -2 13 -5z m-29 -29 c-3 -3 -9 2 -12 12 -6 14 -5 15 5 6 7 -7 10 -15 7 -18z"/>
<path d="M3141 743 c0 -12 59 -56 59 -45 0 9 -25 33 -47 46 -7 4 -13 4 -12 -1z"/>
<path d="M3610 416 c0 -2 9 -6 20 -9 11 -3 18 -1 14 4 -5 9 -34 13 -34 5z"/>
<path d="M2733 86 c3 -8 1 -17 -6 -20 -7 -3 -2 -3 10 0 16 4 23 -1 29 -18 4
-13 6 -25 5 -27 -5 -7 24 -21 42 -21 14 0 17 5 11 23 -3 12 -11 24 -15 25 -5
2 -9 9 -9 16 0 12 -40 36 -62 36 -5 0 -8 -6 -5 -14z"/>
<path d="M7635 80 c3 -5 11 -10 16 -10 6 0 7 5 4 10 -3 6 -11 10 -16 10 -6 0
-7 -4 -4 -10z"/>
<path d="M7601 31 c-8 -5 -30 -7 -49 -4 -26 5 -33 3 -28 -6 4 -6 16 -9 27 -6
10 4 19 2 19 -3 0 -5 11 -7 25 -4 14 2 25 11 25 18 0 16 -1 16 -19 5z"/>
<path d="M7645 30 c-3 -5 1 -10 9 -10 9 0 16 5 16 10 0 6 -4 10 -9 10 -6 0
-13 -4 -16 -10z"/>
<path d="M3920 20 c-8 -5 -12 -12 -9 -15 4 -3 12 1 19 10 14 17 11 19 -10 5z"/>
<path d="M7375 20 c28 -12 37 -12 30 0 -3 6 -16 10 -28 9 -21 0 -21 -1 -2 -9z"/>
<path d="M7945 20 c4 -6 11 -8 16 -5 14 9 11 15 -7 15 -8 0 -12 -5 -9 -10z"/>
<path d="M2555 10 c-3 -5 -1 -10 4 -10 6 0 11 5 11 10 0 6 -2 10 -4 10 -3 0
-8 -4 -11 -10z"/>
<path d="M7478 13 c7 -3 16 -2 19 1 4 3 -2 6 -13 5 -11 0 -14 -3 -6 -6z"/>
<path d="M7755 10 c-3 -5 1 -10 9 -10 9 0 16 5 16 10 0 6 -4 10 -9 10 -6 0
-13 -4 -16 -10z"/>
</g>
</svg>
