<?xml version="1.0" standalone="no"?>
<!DOCTYPE svg PUBLIC "-//W3C//DTD SVG 20010904//EN"
 "http://www.w3.org/TR/2001/REC-SVG-20010904/DTD/svg10.dtd">
<svg version="1.0" xmlns="http://www.w3.org/2000/svg"
 width="500.000000pt" height="500.000000pt" viewBox="0 0 500.000000 500.000000"
 preserveAspectRatio="xMidYMid meet">

<g transform="translate(0.000000,500.000000) scale(0.100000,-0.100000)"
fill="#000000" stroke="none">
<path d="M0 4540 c0 -440 1 -460 18 -460 14 0 1228 479 2314 913 7 3 -515 6
-1159 6 l-1173 1 0 -460z"/>
<path d="M2635 4990 c40 -17 2321 -887 2343 -894 l22 -7 0 455 0 456 -1192 -1
c-656 0 -1184 -4 -1173 -9z"/>
<path d="M1258 4507 l-1208 -482 0 -202 0 -203 2450 0 2450 0 0 213 0 214
-1227 468 c-676 257 -1235 469 -1243 471 -8 2 -558 -214 -1222 -479z m363
-356 c23 -19 23 -21 7 -37 -15 -15 -21 -16 -43 -6 -15 7 -31 10 -36 7 -21 -13
-6 -34 38 -56 88 -44 97 -115 20 -153 -36 -17 -40 -17 -83 -1 -58 22 -72 47
-40 69 21 13 26 13 36 1 7 -8 25 -15 41 -15 45 0 36 28 -16 51 -76 33 -96 89
-50 134 31 31 92 34 126 6z m149 -116 l0 -135 -30 0 -30 0 0 135 0 135 30 0
30 0 0 -135z m195 48 l65 -86 0 86 0 87 30 0 30 0 0 -135 0 -135 -33 0 c-30 0
-39 8 -93 83 l-59 82 -3 -82 -3 -83 -29 0 -30 0 0 135 0 135 30 0 c25 0 38
-12 95 -87z m396 64 c41 -27 48 -52 19 -67 -17 -9 -25 -7 -47 9 -52 42 -123
10 -123 -54 0 -65 83 -102 125 -55 16 18 19 18 47 4 l30 -16 -28 -29 c-54 -57
-138 -58 -196 -2 -49 47 -56 131 -16 181 45 54 132 68 189 29z m259 -7 c0 -29
-1 -30 -50 -30 -47 0 -50 -2 -50 -25 0 -23 4 -25 45 -25 41 0 45 -2 45 -25 0
-23 -4 -25 -45 -25 -43 0 -45 -1 -45 -30 0 -29 1 -30 50 -30 47 0 50 -2 50
-25 0 -25 -1 -25 -80 -25 l-80 0 0 135 0 135 80 0 80 0 0 -30z m317 8 c35 -33
30 -75 -18 -141 l-40 -57 45 0 c42 0 46 -2 46 -25 l0 -25 -101 0 c-77 0 -98 3
-93 13 5 6 34 45 66 85 32 40 58 82 58 93 0 30 -31 37 -48 11 -19 -29 -62 -30
-62 -2 0 60 99 93 147 48z m247 -8 c46 -56 43 -172 -6 -217 -33 -29 -57 -35
-96 -22 -77 26 -96 176 -30 246 33 36 98 32 132 -7z m260 0 c46 -56 43 -172
-6 -217 -33 -29 -57 -35 -96 -22 -77 26 -96 176 -30 246 33 36 98 32 132 -7z
m176 -105 l0 -135 -30 0 -30 0 0 105 c0 98 -1 105 -20 105 -16 0 -20 7 -20 30
0 29 1 30 50 30 l50 0 0 -135z m-1813 -271 c3 -9 -1 -23 -10 -32 -13 -13 -21
-13 -42 -4 -29 13 -33 46 -8 61 20 11 51 -2 60 -25z m144 26 c39 -21 11 -84
-33 -72 -23 6 -34 47 -18 67 15 18 25 19 51 5z m166 -5 c37 -26 0 -82 -42 -63
-26 12 -31 54 -7 67 23 14 24 14 49 -4z m503 0 c17 -21 9 -47 -22 -64 -22 -13
-29 -13 -42 -2 -9 7 -16 24 -16 37 0 38 55 59 80 29z m168 -26 c1 -8 -3 -22
-10 -32 -11 -14 -17 -15 -38 -4 -31 15 -36 39 -14 61 14 15 19 15 38 3 11 -8
22 -21 24 -28z m148 33 c19 -13 23 -39 8 -60 -13 -20 -39 -22 -64 -7 -11 7
-14 58 -3 68 9 9 45 9 59 -1z m344 -32 c0 -28 -32 -49 -57 -39 -28 10 -31 53
-6 67 22 13 63 -6 63 -28z m312 23 c23 -20 23 -36 1 -55 -23 -20 -58 -8 -68
22 -5 15 -1 26 12 35 24 19 33 18 55 -2z m-1957 -14 c9 -28 -16 -53 -44 -44
-20 6 -29 43 -14 58 15 15 52 6 58 -14z m651 7 c15 -12 17 -18 8 -33 -23 -37
-87 -10 -71 31 8 20 37 21 63 2z m164 -1 c19 -23 3 -57 -27 -53 -34 4 -51 31
-34 52 17 20 45 21 61 1z m655 -20 c0 -27 -3 -30 -30 -30 -21 0 -31 5 -33 18
-6 33 6 49 35 45 24 -3 28 -8 28 -33z m325 20 c20 -24 8 -50 -24 -50 -32 0
-53 23 -43 49 8 20 50 21 67 1z"/>
<path d="M3090 4105 c-18 -22 -16 -123 4 -143 13 -13 20 -14 34 -6 21 14 30
128 11 150 -15 18 -33 18 -49 -1z"/>
<path d="M3350 4105 c-18 -22 -16 -123 4 -143 13 -13 20 -14 34 -6 21 14 30
128 11 150 -15 18 -33 18 -49 -1z"/>
<path d="M0 1806 l0 -1806 2500 0 2500 0 0 1800 0 1800 -2477 0 c-1363 0
-2488 3 -2500 6 l-23 6 0 -1806z m700 1444 c0 -15 7 -20 25 -20 23 0 25 -3 25
-49 0 -36 -12 -78 -46 -158 -26 -59 -48 -110 -50 -112 -2 -2 -4 77 -4 177 l0
182 25 0 c18 0 25 -5 25 -20z m370 0 c-10 -18 -8 -20 20 -20 16 0 30 -4 30 -8
0 -5 -45 -105 -100 -223 l-99 -214 90 -220 c69 -168 93 -235 98 -285 5 -54 9
-65 26 -69 11 -2 23 -8 27 -15 6 -8 8 -7 8 2 0 8 19 12 60 12 l60 0 0 199 0
198 59 32 c32 17 64 31 71 31 17 0 3 -121 -16 -136 -11 -9 -14 -50 -14 -208
l0 -196 -85 0 c-78 0 -85 2 -85 20 0 15 -7 20 -25 20 -23 0 -24 -2 -15 -20 10
-19 8 -20 -83 -20 -85 0 -95 2 -100 19 -2 11 -15 21 -28 23 -13 1 -25 11 -27
21 -3 15 5 17 67 17 39 0 71 2 71 4 0 2 -59 149 -131 327 -117 288 -130 325
-119 348 6 14 48 106 93 204 l82 177 38 0 c35 0 37 -2 27 -20z m1490 0 c0 -15
7 -20 25 -20 l25 0 0 -425 0 -425 -50 0 -50 0 0 445 0 445 25 0 c18 0 25 -5
25 -20z m1070 0 c0 -14 7 -20 23 -20 21 0 24 -8 51 -171 l29 -171 -18 -124
c-10 -68 -21 -124 -24 -124 -3 0 -28 129 -55 288 -26 158 -50 299 -53 315 -5
24 -2 27 21 27 19 0 26 -5 26 -20z m411 -2 c0 -13 0 -88 -1 -168 -1 -132 -7
-181 -71 -538 -38 -216 -69 -397 -69 -402 0 -6 -43 -10 -105 -10 -98 0 -105 1
-105 20 0 14 -7 20 -24 20 -15 0 -26 7 -29 20 -5 18 1 19 76 22 l81 3 72 410
c40 226 82 463 94 528 l22 117 29 0 c23 0 29 -5 30 -22z m-2354 -99 c10 -18
13 -146 13 -521 l0 -498 -85 0 c-78 0 -85 2 -85 20 0 15 -7 20 -25 20 -18 0
-25 5 -25 20 0 18 7 20 60 20 l60 0 0 490 c0 414 -2 496 -15 527 l-15 36 52
-45 c29 -25 59 -56 65 -69z m610 0 c9 -17 13 -90 13 -246 l0 -223 -52 -26
c-29 -15 -55 -28 -57 -30 -2 -2 27 -72 64 -156 47 -106 70 -169 73 -205 4 -44
8 -52 26 -55 11 -2 108 -2 214 0 l192 3 0 64 c0 63 1 65 25 65 20 0 25 -5 25
-25 0 -20 5 -25 25 -25 25 0 25 -1 25 -80 l0 -80 -215 0 c-208 0 -215 1 -215
20 0 14 -7 20 -21 20 -16 0 -19 -4 -14 -20 6 -19 2 -20 -84 -20 -80 0 -92 2
-101 20 -6 11 -20 20 -30 20 -11 0 -20 2 -20 4 0 2 -3 11 -6 20 -5 14 5 16 71
16 58 0 76 3 72 13 -3 6 -51 114 -106 238 -56 125 -101 231 -101 236 0 5 25
21 55 36 l55 27 0 215 c0 169 -3 223 -15 252 l-15 36 52 -45 c29 -25 59 -56
65 -69z m1132 -48 c7 -44 11 -214 11 -463 0 -433 0 -436 -63 -482 -25 -18 -46
-21 -162 -24 -145 -4 -170 2 -234 56 l-33 27 136 -3 c157 -4 191 6 228 67 23
36 23 39 26 468 2 371 1 437 -13 469 -8 20 -15 38 -15 41 0 2 24 -16 54 -41
51 -44 54 -49 65 -115z m1126 114 c75 -62 75 -60 75 -538 0 -419 0 -423 -22
-467 -37 -71 -68 -81 -229 -78 l-135 3 -51 35 -51 35 141 5 c147 5 165 10 207
55 l25 27 3 459 c2 311 -1 466 -8 479 -15 29 -4 25 45 -15z m-3133 -105 c-1
-19 -9 -38 -17 -43 -12 -6 -15 -31 -15 -110 l0 -102 -50 -28 -50 -28 0 176 0
176 68 -3 67 -3 -3 -35z m610 0 c-1 -19 -9 -38 -17 -43 -12 -6 -15 -31 -15
-112 l0 -103 -44 -26 c-25 -14 -47 -26 -50 -26 -3 0 -6 79 -6 175 l0 176 68
-3 67 -3 -3 -35z m1128 0 c0 -29 -4 -40 -15 -40 -13 0 -15 -45 -15 -345 l0
-345 -50 0 -50 0 0 385 0 385 65 0 65 0 0 -40z m1190 0 c0 -29 -4 -40 -15 -40
-13 0 -15 -45 -15 -345 l0 -345 -50 0 -50 0 0 385 0 385 65 0 65 0 0 -40z
m-3596 -536 c26 -73 27 -78 12 -115 -12 -29 -16 -76 -16 -184 l0 -145 -85 0
c-78 0 -85 2 -85 20 0 16 -7 20 -30 20 -23 0 -30 4 -30 20 0 18 7 20 65 20
l65 0 0 148 c0 144 0 148 32 219 18 40 36 73 39 73 4 0 19 -34 33 -76z m1220
-33 c24 -61 26 -75 26 -238 l0 -173 -85 0 c-78 0 -85 2 -85 20 0 15 -7 20 -25
20 -18 0 -25 5 -25 20 0 18 7 20 60 20 l60 0 0 195 c0 174 2 195 18 204 22 13
25 9 56 -68z m-1414 -766 c0 -9 -9 -15 -25 -15 l-25 0 0 -125 c0 -118 -1 -125
-20 -125 -19 0 -20 7 -20 125 l0 125 -25 0 c-16 0 -25 6 -25 15 0 12 14 15 70
15 56 0 70 -3 70 -15z m142 -2 c15 -14 18 -32 18 -123 0 -112 -5 -126 -53
-143 -19 -7 -56 8 -69 27 -4 6 -8 58 -8 115 0 83 3 108 17 123 20 22 70 23 95
1z m172 -5 c9 -12 16 -41 16 -63 0 -53 -23 -85 -61 -85 -29 0 -29 -1 -29 -55
0 -48 -2 -55 -20 -55 -19 0 -20 7 -20 140 l0 140 49 0 c40 0 53 -4 65 -22z
m241 6 c13 -14 16 -36 13 -130 -2 -63 0 -114 5 -114 4 0 7 -9 7 -20 0 -17 -3
-19 -18 -11 -10 5 -33 9 -52 9 -56 -2 -70 26 -70 141 0 115 12 141 65 141 18
0 41 -7 50 -16z m95 -96 c0 -120 6 -142 36 -136 17 3 19 15 22 126 2 115 4
122 23 122 20 0 21 -5 17 -125 -3 -139 -12 -158 -69 -158 -51 0 -59 20 -59
160 0 103 2 123 15 123 12 0 15 -19 15 -112z m246 47 c42 -207 43 -215 24
-215 -11 0 -20 10 -24 25 -5 21 -12 25 -41 25 -31 0 -35 -3 -35 -25 0 -19 -5
-25 -21 -25 -17 0 -20 5 -16 23 3 12 16 75 28 140 22 116 23 118 48 115 22 -3
27 -10 37 -63z m114 -60 l0 -125 40 0 c29 0 40 -4 40 -15 0 -12 -13 -15 -60
-15 l-60 0 0 140 c0 133 1 140 20 140 19 0 20 -7 20 -125z m150 -15 c0 -133
-1 -140 -20 -140 -19 0 -20 7 -20 140 0 133 1 140 20 140 19 0 20 -7 20 -140z
m170 125 c0 -9 -9 -15 -25 -15 l-25 0 0 -125 c0 -118 -1 -125 -20 -125 -19 0
-20 7 -20 125 l0 125 -25 0 c-16 0 -25 6 -25 15 0 12 14 15 70 15 56 0 70 -3
70 -15z m78 -46 c21 -68 22 -68 46 9 10 30 24 52 32 52 19 0 18 -4 -11 -90
-15 -45 -25 -96 -25 -132 0 -51 -2 -58 -20 -58 -17 0 -20 7 -20 48 0 26 -13
89 -29 140 -27 86 -28 92 -10 92 14 0 23 -15 37 -61z m322 41 c17 -17 20 -33
20 -118 0 -124 -10 -142 -81 -142 l-49 0 0 140 0 140 45 0 c32 0 51 -6 65 -20z
m180 5 c0 -11 -11 -15 -40 -15 l-40 0 0 -44 c0 -43 1 -45 33 -48 20 -2 32 -8
32 -18 0 -10 -12 -16 -32 -18 -32 -3 -33 -5 -33 -48 l0 -44 40 0 c29 0 40 -4
40 -15 0 -12 -13 -15 -60 -15 l-60 0 0 140 0 140 60 0 c47 0 60 -3 60 -15z
m70 -110 l0 -125 40 0 c29 0 40 -4 40 -15 0 -12 -13 -15 -55 -15 l-55 0 0 140
c0 118 2 140 15 140 13 0 15 -21 15 -125z m150 -15 c0 -118 -2 -140 -15 -140
-13 0 -15 22 -15 140 0 118 2 140 15 140 13 0 15 -22 15 -140z m280 125 c19
-23 18 -79 -2 -83 -12 -2 -17 5 -20 30 -2 23 -9 34 -22 36 -29 6 -36 -16 -36
-108 0 -92 7 -114 36 -108 13 2 20 13 22 36 3 25 8 32 24 32 18 0 20 -4 15
-37 -8 -47 -28 -66 -68 -66 -50 0 -59 22 -59 144 0 84 3 111 16 123 20 20 78
21 94 1z m92 -107 l3 -123 25 0 25 0 3 123 c2 99 5 122 17 122 12 0 15 -22 15
-129 0 -142 -5 -154 -61 -154 -55 0 -64 20 -67 158 -4 120 -3 125 17 125 19 0
21 -7 23 -122z m243 108 c21 -15 26 -96 7 -119 -8 -9 -8 -17 -1 -24 5 -5 13
-36 16 -67 5 -52 4 -56 -16 -56 -19 0 -21 6 -21 50 0 38 -4 52 -19 60 -36 18
-41 12 -41 -50 0 -47 -3 -60 -15 -60 -13 0 -15 22 -15 140 l0 140 43 0 c24 0
52 -6 62 -14z m185 -1 c0 -11 -12 -15 -45 -15 l-45 0 0 -45 c0 -45 0 -45 35
-45 28 0 35 -4 35 -20 0 -16 -7 -20 -35 -20 -35 0 -35 0 -35 -45 l0 -45 45 0
c33 0 45 -4 45 -15 0 -12 -13 -15 -60 -15 l-60 0 0 140 0 140 60 0 c47 0 60
-3 60 -15z m152 -2 c15 -14 18 -32 18 -121 0 -128 -8 -142 -82 -142 l-48 0 0
140 0 140 47 0 c29 0 53 -6 65 -17z m204 -78 c9 -51 21 -92 24 -90 4 3 10 23
14 45 19 119 27 140 52 140 l24 0 0 -140 c0 -133 -1 -140 -20 -140 -18 0 -20
7 -21 78 l-1 77 -15 -77 c-12 -63 -18 -78 -33 -78 -14 0 -21 16 -35 78 -23
107 -23 108 -24 10 -1 -71 -4 -88 -16 -88 -13 0 -15 22 -15 140 l0 140 24 0
c22 0 25 -6 42 -95z m274 80 c0 -11 -11 -15 -40 -15 l-40 0 0 -45 c0 -45 0
-45 36 -45 28 0 35 -3 32 -17 -2 -12 -14 -19 -36 -21 -31 -3 -32 -5 -32 -48
l0 -44 40 0 c29 0 40 -4 40 -15 0 -12 -13 -15 -60 -15 l-60 0 0 140 0 140 60
0 c47 0 60 -3 60 -15z m159 -102 c12 -65 25 -128 28 -140 4 -18 1 -23 -15 -23
-14 0 -22 8 -24 23 -2 18 -9 22 -38 22 -29 0 -36 -4 -38 -22 -2 -15 -10 -23
-22 -23 -12 0 -17 6 -14 18 2 9 13 67 24 127 27 139 25 135 53 135 21 0 24 -8
46 -117z m191 102 c0 -9 -9 -15 -25 -15 l-25 0 0 -125 c0 -104 -2 -125 -15
-125 -13 0 -15 21 -15 125 l0 125 -30 0 c-29 0 -38 9 -23 23 3 4 35 7 70 7 49
0 63 -3 63 -15z m142 -2 c21 -19 24 -63 4 -63 -8 0 -17 12 -20 26 -9 36 -50
30 -54 -7 -2 -21 7 -37 42 -72 37 -36 46 -52 46 -79 0 -47 -20 -71 -60 -71
-38 0 -73 34 -68 67 4 29 31 26 38 -4 4 -16 14 -26 28 -28 19 -3 22 1 22 32 0
28 -6 40 -31 58 -55 41 -72 95 -43 136 18 27 69 30 96 5z m-1794 -125 c3 -15
-4 -18 -37 -18 -35 0 -41 3 -41 21 0 17 5 20 37 17 27 -2 39 -8 41 -20z
m-1199 -413 c31 -16 41 -33 41 -71 0 -38 -16 -61 -50 -73 -98 -34 -155 95 -65
147 27 15 41 15 74 -3z m460 0 c31 -16 41 -33 41 -71 0 -38 -16 -61 -50 -73
-98 -34 -156 98 -65 147 27 15 41 15 74 -3z m454 3 c32 -17 46 -39 46 -73 0
-57 -53 -93 -109 -74 -66 24 -69 112 -5 147 26 15 41 15 68 0z m466 -3 c32
-16 41 -33 41 -73 -1 -55 -55 -90 -110 -71 -66 24 -69 112 -5 147 27 15 41 15
74 -3z m454 3 c32 -17 46 -39 46 -73 0 -57 -53 -93 -109 -74 -66 24 -69 112
-5 147 26 15 41 15 68 0z m-2153 -387 c0 -20 -25 -35 -41 -25 -5 3 -9 14 -9
25 0 14 7 19 25 19 18 0 25 -5 25 -19z m100 -106 l0 -125 -25 0 -25 0 0 125 0
125 25 0 25 0 0 -125z m1420 0 c0 -114 -2 -125 -18 -125 -10 0 -23 5 -29 11
-8 8 -13 8 -17 0 -10 -15 -58 -14 -80 2 -27 19 -34 108 -12 142 20 30 56 41
85 25 20 -10 21 -8 21 30 0 36 2 40 25 40 l25 0 0 -125z m630 0 l0 -125 -25 0
-25 0 0 125 0 125 25 0 25 0 0 -125z m106 114 c9 -16 -20 -41 -39 -33 -17 6
-22 25 -10 37 10 11 41 8 49 -4z m364 -34 l0 -45 24 15 c29 19 72 11 86 -15 6
-10 10 -50 10 -89 0 -69 -1 -71 -25 -71 -23 0 -24 3 -27 68 -3 61 -5 67 -25
70 -28 4 -43 -29 -43 -94 0 -40 -2 -44 -25 -44 l-25 0 0 125 0 125 25 0 c23 0
25 -4 25 -45z m-3240 15 c0 -17 -7 -20 -40 -20 -38 0 -40 -2 -40 -29 0 -27 3
-30 38 -33 29 -2 37 -7 37 -23 0 -16 -8 -21 -37 -23 -38 -3 -38 -4 -38 -48 0
-42 -1 -44 -30 -44 l-30 0 0 120 0 120 70 0 c63 0 70 -2 70 -20z m2431 -3 c41
-27 57 -78 43 -134 -13 -54 -60 -83 -135 -83 l-59 0 0 120 0 120 59 0 c44 0
66 -6 92 -23z m708 14 c8 -5 11 -16 7 -26 -4 -13 -13 -15 -36 -10 -19 4 -37 2
-46 -6 -13 -10 -13 -14 1 -30 9 -9 29 -22 45 -29 16 -6 34 -25 41 -41 10 -26
9 -34 -8 -57 -18 -24 -27 -27 -79 -27 -57 0 -59 1 -62 27 -3 26 -2 26 32 16
64 -20 93 18 35 47 -70 37 -87 80 -47 122 23 24 88 32 117 14z m-2963 -62 c20
-17 20 -169 0 -169 -8 0 -18 5 -22 11 -4 8 -9 8 -17 0 -19 -19 -85 -13 -97 8
-26 49 2 91 62 91 32 0 39 3 36 18 -3 13 -13 17 -42 17 -23 0 -41 5 -43 13
-11 29 90 39 123 11z m204 8 c21 -11 30 -10 52 3 25 13 31 13 55 0 27 -15 28
-20 31 -98 3 -82 3 -82 -22 -82 -24 0 -25 3 -28 67 -3 57 -6 68 -22 71 -27 5
-36 -15 -36 -80 0 -55 -1 -58 -25 -58 -23 0 -24 3 -27 68 -3 64 -4 67 -28 67
-24 0 -25 -3 -28 -67 -3 -68 -3 -68 -32 -68 l-30 0 0 90 c0 89 0 90 25 90 14
0 25 -5 25 -11 0 -5 10 -3 22 5 27 19 36 20 68 3z m839 -24 c19 -22 22 -34 18
-72 -6 -54 -34 -81 -84 -81 -46 0 -68 13 -83 49 -22 54 1 115 50 134 28 11 75
-3 99 -30z m491 17 c16 -16 20 -33 20 -95 0 -73 -1 -75 -25 -75 -23 0 -24 3
-27 68 -3 61 -5 67 -25 70 -28 4 -43 -29 -43 -94 0 -40 -2 -44 -25 -44 -25 0
-25 1 -25 91 l0 92 33 -6 c19 -3 40 -1 48 4 23 14 48 10 69 -11z m213 -11 c9
-12 17 -34 17 -50 0 -29 -1 -29 -56 -29 -47 0 -55 -3 -52 -17 3 -14 14 -18 51
-18 42 0 47 -2 45 -20 -4 -29 -95 -34 -127 -8 -27 22 -37 87 -19 123 28 52
104 62 141 19z m740 0 c9 -12 17 -34 17 -50 0 -29 -1 -29 -56 -29 -47 0 -55
-3 -52 -17 3 -14 14 -18 51 -18 42 0 47 -2 45 -20 -4 -29 -95 -34 -127 -8 -27
22 -37 87 -19 123 28 52 104 62 141 19z m896 -6 c19 -22 22 -34 18 -72 -6 -54
-34 -81 -84 -81 -46 0 -68 13 -83 49 -22 54 1 115 50 134 28 11 75 -3 99 -30z
m206 12 c18 -17 25 -35 25 -64 0 -77 -34 -112 -95 -97 -24 6 -25 4 -25 -39 0
-41 -2 -45 -25 -45 l-25 0 0 130 0 130 40 -2 c22 -1 43 2 47 5 13 13 34 7 58
-18z m-3145 -75 c0 -89 0 -90 -25 -90 -25 0 -25 1 -25 90 0 89 0 90 25 90 25
0 25 -1 25 -90z m206 28 l18 -62 20 62 c18 56 22 62 48 62 l27 0 -28 -77 c-49
-131 -52 -137 -73 -160 -28 -30 -78 -32 -78 -3 0 13 7 20 20 20 33 0 44 35 25
83 -9 23 -26 63 -36 90 l-19 47 29 0 c26 0 29 -5 47 -62z m496 0 l14 -63 14
63 c12 61 13 62 45 62 32 0 33 -1 45 -62 l13 -63 14 63 c13 55 17 62 39 62 29
0 29 -4 0 -100 -21 -71 -23 -75 -51 -75 -27 0 -30 4 -41 50 -18 82 -20 83 -36
15 -13 -61 -16 -65 -44 -68 -29 -3 -30 -1 -52 80 -12 46 -22 86 -22 91 0 4 11
7 24 7 22 0 26 -7 38 -62z m1548 -28 c0 -89 0 -90 -25 -90 -25 0 -25 1 -25 90
0 89 0 90 25 90 25 0 25 -1 25 -90z m-1830 0 c0 -17 -7 -20 -45 -20 -38 0 -45
3 -45 20 0 17 7 20 45 20 38 0 45 -3 45 -20z"/>
<path d="M631 1741 c-12 -21 -15 -141 -5 -178 4 -16 14 -23 31 -23 l24 0 -3
107 c-3 92 -6 108 -20 111 -9 2 -21 -6 -27 -17z"/>
<path d="M800 1705 c0 -53 1 -56 23 -53 19 3 22 9 22 53 0 44 -3 50 -22 53
-22 3 -23 0 -23 -53z"/>
<path d="M1044 1747 c-3 -8 -3 -56 -2 -108 3 -83 5 -94 22 -97 10 -2 22 2 27
10 10 15 12 168 3 192 -7 19 -43 21 -50 3z"/>
<path d="M1406 1685 c-4 -28 -9 -58 -12 -67 -4 -14 1 -18 21 -18 27 0 27 1 20
46 -12 83 -21 95 -29 39z"/>
<path d="M2210 1650 l0 -111 28 3 27 3 0 105 0 105 -27 3 -28 3 0 -111z"/>
<path d="M3230 1709 c0 -49 1 -50 28 -47 23 2 28 8 30 36 4 38 -12 62 -39 62
-16 0 -19 -8 -19 -51z"/>
<path d="M3560 1650 l0 -110 25 0 c34 0 45 27 45 110 0 83 -11 110 -45 110
l-25 0 0 -110z"/>
<path d="M4213 1655 l-10 -55 27 0 27 0 -10 55 c-6 30 -13 55 -17 55 -4 0 -11
-25 -17 -55z"/>
<path d="M2704 736 c-3 -14 -3 -38 0 -52 5 -20 12 -25 34 -22 25 3 27 6 27 48
0 42 -2 45 -27 48 -22 3 -29 -2 -34 -22z"/>
<path d="M3015 808 c-4 -9 -5 -44 -3 -79 3 -64 3 -64 32 -62 16 1 36 9 44 17
19 18 19 93 1 111 -23 22 -68 30 -74 13z"/>
<path d="M767 686 c-3 -7 -1 -18 5 -24 14 -14 48 3 48 23 0 19 -46 20 -53 1z"/>
<path d="M1799 737 c-14 -31 4 -77 30 -77 27 0 44 34 36 71 -8 37 -50 41 -66
6z"/>
<path d="M2517 764 c-17 -17 -5 -34 24 -34 24 0 30 4 27 18 -3 17 -38 29 -51
16z"/>
<path d="M3257 764 c-17 -17 -5 -34 24 -34 24 0 30 4 27 18 -3 17 -38 29 -51
16z"/>
<path d="M4139 737 c-14 -31 4 -77 30 -77 27 0 44 34 36 71 -8 37 -50 41 -66
6z"/>
<path d="M4354 735 c-10 -42 3 -75 31 -75 28 0 41 33 31 75 -5 18 -13 25 -31
25 -18 0 -26 -7 -31 -25z"/>
</g>
</svg>
